<svg width="10" height="12" viewBox="0 0 10 12" fill="none" xmlns="http://www.w3.org/2000/svg">
<path d="M9.70731 6.29325C10.0983 6.68425 10.0983 7.31631 9.70731 7.70731L5.70731 11.7073C5.51231 11.9023 5.25628 12.0003 5.00028 12.0003C4.74428 12.0003 4.48825 11.9023 4.29325 11.7073L0.29325 7.70731C-0.09775 7.31631 -0.09775 6.68425 0.29325 6.29325C0.68425 5.90225 1.31631 5.90225 1.70731 6.29325L5.00028 9.58622L8.29325 6.29325C8.68425 5.90225 9.31631 5.90225 9.70731 6.29325ZM4.29325 5.70731C4.48825 5.90231 4.74428 6.00028 5.00028 6.00028C5.25628 6.00028 5.51231 5.90231 5.70731 5.70731L9.70731 1.70731C10.0983 1.31631 10.0983 0.68425 9.70731 0.29325C9.31631 -0.09775 8.68425 -0.09775 8.29325 0.29325L5.00028 3.58622L1.70731 0.29325C1.31631 -0.09775 0.68425 -0.09775 0.29325 0.29325C-0.09775 0.68425 -0.09775 1.31631 0.29325 1.70731L4.29325 5.70731Z" fill="black"/>
</svg>
