<svg width="39" height="35" viewBox="0 0 39 35" fill="none" xmlns="http://www.w3.org/2000/svg">
<path d="M2.575 27V13.575C2.575 12.825 2.46667 12.225 2.25 11.775C2.05 11.3083 1.575 11.075 0.825 11.075H0.4V10.5H6.95C7.63333 10.5 8.375 10.55 9.175 10.65C9.975 10.75 10.725 10.95 11.425 11.25C12.1417 11.5333 12.725 11.9667 13.175 12.55C13.6417 13.1333 13.875 13.9083 13.875 14.875C13.875 15.6083 13.6083 16.3083 13.075 16.975C12.5417 17.625 11.7083 18.1333 10.575 18.5C11.6583 18.65 12.5 18.9167 13.1 19.3C13.7 19.6667 14.1167 20.125 14.35 20.675C14.6 21.2083 14.725 21.8083 14.725 22.475C14.725 23.4083 14.5083 24.175 14.075 24.775C13.6583 25.375 13.1083 25.8333 12.425 26.15C11.7417 26.4667 10.9833 26.6917 10.15 26.825C9.33333 26.9417 8.51667 27 7.7 27H2.575ZM7.325 26.1C8.80833 26.1 9.95 25.8 10.75 25.2C11.55 24.6 11.95 23.7333 11.95 22.6C11.95 21.4667 11.5583 20.6083 10.775 20.025C10.0083 19.425 8.85833 19.125 7.325 19.125H5.1V25.775C5.41667 25.875 5.76667 25.9583 6.15 26.025C6.55 26.075 6.94167 26.1 7.325 26.1ZM5.1 18.075H7.325C8.00833 18.075 8.64167 17.9583 9.225 17.725C9.80833 17.4917 10.2833 17.1333 10.65 16.65C11.0167 16.15 11.2 15.5167 11.2 14.75C11.2 13.9333 10.975 13.2833 10.525 12.8C10.075 12.3167 9.51667 11.9667 8.85 11.75C8.18333 11.5167 7.525 11.4 6.875 11.4C6.59167 11.4 6.29167 11.425 5.975 11.475C5.65833 11.5083 5.36667 11.5667 5.1 11.65V18.075Z" fill="black"/>
<path d="M32.45 27.25C31.5667 27.25 30.8583 27.1 30.325 26.8C29.8083 26.5 29.4333 26.1917 29.2 25.875H29.075L28.2 27H26.725V13.575C26.725 12.825 26.6167 12.225 26.4 11.775C26.2 11.3083 25.725 11.075 24.975 11.075H24.525V10.5H26.975C27.5583 10.5 28.0083 10.5833 28.325 10.75C28.6583 10.9167 28.8917 11.225 29.025 11.675C29.1583 12.1083 29.225 12.7417 29.225 13.575V15.75C29.5917 15.5667 30.0167 15.4 30.5 15.25C30.9833 15.0833 31.5583 15 32.225 15C33.3417 15 34.2583 15.275 34.975 15.825C35.7083 16.375 36.25 17.1167 36.6 18.05C36.9667 18.9667 37.15 19.9917 37.15 21.125C37.15 22.2417 36.975 23.2667 36.625 24.2C36.275 25.1333 35.75 25.875 35.05 26.425C34.35 26.975 33.4833 27.25 32.45 27.25ZM31.75 26.225C32.4 26.225 32.925 26 33.325 25.55C33.725 25.0833 34.0167 24.4667 34.2 23.7C34.4 22.9333 34.5 22.075 34.5 21.125C34.5 20.1583 34.4 19.3 34.2 18.55C34.0167 17.7833 33.7083 17.175 33.275 16.725C32.8417 16.2583 32.2667 16.025 31.55 16.025C31.1333 16.025 30.725 16.1083 30.325 16.275C29.9417 16.4417 29.575 16.6083 29.225 16.775V24.675C29.4583 25.075 29.775 25.4333 30.175 25.75C30.5917 26.0667 31.1167 26.225 31.75 26.225Z" fill="black"/>
<rect x="20" width="1" height="35" fill="black"/>
</svg>
