<svg width="100" height="88" viewBox="0 0 100 88" fill="none" xmlns="http://www.w3.org/2000/svg">
<path d="M17.4905 87.2992L64.2137 46.335L86.201 66.8171M17.4905 87.2992H72.4589C81.5664 87.2992 88.9494 80.4216 88.9494 71.9376V46.335M17.4905 87.2992C8.38306 87.2992 1 80.4216 1 71.9376V20.7324C1 12.2485 8.38306 5.37088 17.4905 5.37088H53.22M83.4526 30.0949L83.4526 15.6119M83.4526 15.6119L83.4526 1.12891M83.4526 15.6119L67.9052 15.6119M83.4526 15.6119L99 15.6119M33.981 28.4132C33.981 32.6552 30.2895 36.094 25.7358 36.094C21.182 36.094 17.4905 32.6552 17.4905 28.4132C17.4905 24.1712 21.182 20.7324 25.7358 20.7324C30.2895 20.7324 33.981 24.1712 33.981 28.4132Z" stroke="black" stroke-linecap="round" stroke-linejoin="round"/>
</svg>
